<svg xmlns="http://www.w3.org/2000/svg" width="960" height="240" viewBox="0 0 960 240" role="img" aria-labelledby="title desc">
  <title id="title">Morphium logo (dark backgrounds)</title>
  <desc id="desc">An interlocking M symbol representing bidirectional object mapping, followed by the Morphium wordmark. Variant for dark backgrounds.</desc>
  <g transform="translate(32 24)">
    <path fill="#FFFFFF" d="M16 168V53c0-17 14-31 31-31 10 0 19 4 25 12l24 29 24-29c7-8 16-12 26-12 17 0 30 14 30 31v115h-32V61l-48 58-48-58v107H16Z"/>
    <path fill="#D6BBFB" d="m40 121 23-28 33 40 33-40 23 28-56 68-56-68Z"/>
    <path fill="#FF6B6B" d="m96 133 13-16 13 16-13 16-13-16Z"/>
  </g>
  <text x="250" y="155" fill="#A78BFA" font-family="Inter, Avenir Next, Helvetica Neue, Arial, sans-serif" font-size="112" font-weight="700" letter-spacing="-5">Morphium</text>
</svg>
